<svg xmlns="http://www.w3.org/2000/svg" viewBox="0 0 32 32">
  <defs>
    <linearGradient id="g" x1="0" y1="1" x2="1" y2="0">
      <stop offset="0%" stop-color="#ff6a1f"/>
      <stop offset="100%" stop-color="#ffb347"/>
    </linearGradient>
  </defs>
  <rect width="32" height="32" rx="7" fill="#14100e"/>
  <path fill="url(#g)" d="M16 4.5c2.6 4 1.7 7-.6 9.7-2.1 2.5-3.2 4.4-3 6.8.2 2.6 2.3 4.3 5 4.5-3.5 2.2-9 .8-10.7-3.2C5 18.3 7.3 14.6 9.7 11.3 11.4 9 13.4 7 16 4.5Zm5.4 11.7c2.4 2.5 3.4 5.2 2.6 8.1-.7 2.6-3 4.4-6.2 4.5 2.6-1.4 3.6-3.9 2.6-6.3-.8-1.9 0-3.7 1-6.3Z"/>
</svg>
